<?xml version="1.0" encoding="UTF-8" standalone="no"?>
<!-- Created with Inkscape (http://www.inkscape.org/) -->
<svg xmlns:dc="http://purl.org/dc/elements/1.1/" xmlns:cc="http://creativecommons.org/ns#" xmlns:rdf="http://www.w3.org/1999/02/22-rdf-syntax-ns#" xmlns:svg="http://www.w3.org/2000/svg" xmlns="http://www.w3.org/2000/svg" xmlns:sodipodi="http://sodipodi.sourceforge.net/DTD/sodipodi-0.dtd" xmlns:inkscape="http://www.inkscape.org/namespaces/inkscape" width="912.80731" height="637.78027" id="svg3861" version="1.1" inkscape:version="0.48.3.1 r9886" sodipodi:docname="Mensa Map (SVG).svg">
  <defs id="defs3863">
    <inkscape:perspective sodipodi:type="inkscape:persp3d" inkscape:vp_x="0 : 526.18109 : 1" inkscape:vp_y="0 : 1000 : 0" inkscape:vp_z="744.09448 : 526.18109 : 1" inkscape:persp3d-origin="372.04724 : 350.78739 : 1" id="perspective3869"/>
    <inkscape:perspective id="perspective3842" inkscape:persp3d-origin="0.5 : 0.33333333 : 1" inkscape:vp_z="1 : 0.5 : 1" inkscape:vp_y="0 : 1000 : 0" inkscape:vp_x="0 : 0.5 : 1" sodipodi:type="inkscape:persp3d"/>
  </defs>
  <sodipodi:namedview id="base" pagecolor="#ffffff" bordercolor="#666666" borderopacity="1.0" inkscape:pageopacity="0.0" inkscape:pageshadow="2" inkscape:zoom="0.24748737" inkscape:cx="1556.7374" inkscape:cy="-59.947075" inkscape:document-units="px" inkscape:current-layer="layer1" showgrid="false" inkscape:window-width="1535" inkscape:window-height="1175" inkscape:window-x="65" inkscape:window-y="24" inkscape:window-maximized="1" fit-margin-top="0" fit-margin-left="0" fit-margin-right="0" fit-margin-bottom="0"/>
  <metadata id="metadata3866">
    <rdf:RDF>
      <cc:Work rdf:about="">
        <dc:format>image/svg+xml</dc:format>
        <dc:type rdf:resource="http://purl.org/dc/dcmitype/StillImage"/>
        <dc:title/>
      </cc:Work>
    </rdf:RDF>
  </metadata>
  <g inkscape:label="Layer 1" inkscape:groupmode="layer" id="layer1" transform="translate(325.62841,-292.24705)">
    <path sodipodi:type="arc" style="fill:#333333;fill-rule:evenodd;stroke:#000000;stroke-width:1px;stroke-linecap:butt;stroke-linejoin:miter;stroke-opacity:1;display:inline" id="path2899" sodipodi:cx="351.66666" sodipodi:cy="222.08333" sodipodi:rx="17.083334" sodipodi:ry="17.083334" d="m 368.74999,222.08333 c 0,9.43486 -7.64847,17.08333 -17.08333,17.08333 -9.43487,0 -17.08334,-7.64847 -17.08334,-17.08333 0,-9.43487 7.64847,-17.08334 17.08334,-17.08334 9.43486,0 17.08333,7.64847 17.08333,17.08334 z" transform="matrix(1.510091,-0.90379505,0.90379505,1.510091,-606.3214,548.83591)"/>
    <path inkscape:connector-curvature="0" style="fill:none;stroke:#000000;stroke-width:6.72103596;stroke-linecap:butt;stroke-linejoin:miter;stroke-miterlimit:4;stroke-opacity:1;stroke-dasharray:none;display:inline" d="m 205.15841,358.73819 -342.41827,204.93859 -7.19083,-12.01467 -177.8172,106.42425 L -4.8647367,926.66682 24.752488,853.45818 375.584,858.88726 350.93446,782.25701 583.81841,606.97458 394.49291,478.77409 432.838,330.17264 l 4.09578,-12.24239 -69.45283,-22.32268 -40.36844,141.34774" id="path2901" sodipodi:nodetypes="cccccccccccccc"/>
    <path inkscape:connector-curvature="0" style="fill:none;stroke:#000000;stroke-width:1.68025899px;stroke-linecap:butt;stroke-linejoin:miter;stroke-opacity:1;display:inline" d="m 282.77441,529.31962 19.40773,-15.28724 -30.99546,-38.15559 -19.34632,14.02661 13.18916,16.58385 11.71432,-7.01106 10.79073,13.93972 -10.99522,8.21253 6.23506,7.69118 z" id="path3677"/>
    <path inkscape:connector-curvature="0" style="fill:none;stroke:#000000;stroke-width:1.68025899px;stroke-linecap:butt;stroke-linejoin:miter;stroke-opacity:1;display:inline" d="m 159.66705,543.04698 24.69398,-0.7531 -2.23702,-49.10768 -11.85525,-0.11114 -12.03986,-0.11287 0.74506,21.176 13.58741,1.32738 0.38862,17.62399 -13.72354,0.0662 0.4406,9.89122 z" id="path3677-7" sodipodi:nodetypes="cccccccccc"/>
    <path inkscape:connector-curvature="0" style="fill:none;stroke:#000000;stroke-width:1.68025899px;stroke-linecap:butt;stroke-linejoin:miter;stroke-opacity:1;display:inline" d="m 239.95892,541.08606 -24.70344,-0.31656 1.36877,-49.13954 11.85143,-0.32065 12.03597,-0.32564 -0.37067,21.18586 -13.56185,1.5673 -0.0771,17.62811 13.72257,-0.17635 -0.26572,9.89747 z" id="path3677-7-4" sodipodi:nodetypes="cccccccccc"/>
    <path inkscape:connector-curvature="0" style="fill:none;stroke:#000000;stroke-width:1.68025899px;stroke-linecap:butt;stroke-linejoin:miter;stroke-opacity:1;display:inline" d="m 118.86139,524.93453 -19.465628,-15.21343 30.850358,-38.27302 9.62478,6.92262 9.77467,7.03042 -13.12609,16.63383 -11.74086,-6.96654 -10.73771,13.98061 11.02631,8.17071 -6.20583,7.7148 z" id="path3677-7-4-0" sodipodi:nodetypes="cccccccccc"/>
    <path sodipodi:type="arc" style="fill:#f2f2f2;stroke:#999999;stroke-width:2;stroke-miterlimit:4;stroke-dasharray:none;display:inline" id="path3751" sodipodi:cx="237.5" sodipodi:cy="341.66666" sodipodi:rx="8.333333" sodipodi:ry="8.333333" d="m 245.83333,341.66666 c 0,4.60237 -3.73096,8.33333 -8.33333,8.33333 -4.60237,0 -8.33333,-3.73096 -8.33333,-8.33333 0,-4.60238 3.73096,-8.33334 8.33333,-8.33334 4.60237,0 8.33333,3.73096 8.33333,8.33334 z" transform="matrix(0.86248205,-0.5161987,0.5161987,0.86248205,-346.59296,666.49647)"/>
    <path sodipodi:type="arc" style="fill:#f2f2f2;stroke:#999999;stroke-width:2;stroke-miterlimit:4;stroke-dasharray:none;display:inline" id="path3751-9" sodipodi:cx="237.5" sodipodi:cy="341.66666" sodipodi:rx="8.333333" sodipodi:ry="8.333333" d="m 245.83333,341.66666 c 0,4.60237 -3.73096,8.33333 -8.33333,8.33333 -4.60237,0 -8.33333,-3.73096 -8.33333,-8.33333 0,-4.60238 3.73096,-8.33334 8.33333,-8.33334 4.60237,0 8.33333,3.73096 8.33333,8.33334 z" transform="matrix(0.86248205,-0.5161987,0.5161987,0.86248205,-385.66762,714.36043)"/>
    <path sodipodi:type="arc" style="fill:#f2f2f2;stroke:#999999;stroke-width:2;stroke-miterlimit:4;stroke-dasharray:none;display:inline" id="path3751-8" sodipodi:cx="237.5" sodipodi:cy="341.66666" sodipodi:rx="8.333333" sodipodi:ry="8.333333" d="m 245.83333,341.66666 c 0,4.60237 -3.73096,8.33333 -8.33333,8.33333 -4.60237,0 -8.33333,-3.73096 -8.33333,-8.33333 0,-4.60238 3.73096,-8.33334 8.33333,-8.33334 4.60237,0 8.33333,3.73096 8.33333,8.33334 z" transform="matrix(0.86248205,-0.5161987,0.5161987,0.86248205,-41.613466,659.38806)"/>
    <path sodipodi:type="arc" style="fill:#f2f2f2;stroke:#999999;stroke-width:2;stroke-miterlimit:4;stroke-dasharray:none;display:inline" id="path3751-2" sodipodi:cx="237.5" sodipodi:cy="341.66666" sodipodi:rx="8.333333" sodipodi:ry="8.333333" d="m 245.83333,341.66666 c 0,4.60237 -3.73096,8.33333 -8.33333,8.33333 -4.60237,0 -8.33333,-3.73096 -8.33333,-8.33333 0,-4.60238 3.73096,-8.33334 8.33333,-8.33334 4.60237,0 8.33333,3.73096 8.33333,8.33334 z" transform="matrix(0.86248205,-0.5161987,0.5161987,0.86248205,168.27783,429.32952)"/>
    <path sodipodi:type="arc" style="fill:#f2f2f2;stroke:#999999;stroke-width:2;stroke-miterlimit:4;stroke-dasharray:none;display:inline" id="path3751-5" sodipodi:cx="237.5" sodipodi:cy="341.66666" sodipodi:rx="8.333333" sodipodi:ry="8.333333" d="m 245.83333,341.66666 c 0,4.60237 -3.73096,8.33333 -8.33333,8.33333 -4.60237,0 -8.33333,-3.73096 -8.33333,-8.33333 0,-4.60238 3.73096,-8.33334 8.33333,-8.33334 4.60237,0 8.33333,3.73096 8.33333,8.33334 z" transform="matrix(0.86248205,-0.5161987,0.5161987,0.86248205,135.28422,406.64843)"/>
    <path inkscape:connector-curvature="0" style="fill:none;stroke:#b3b3b3;stroke-width:5.04077721;stroke-linecap:butt;stroke-linejoin:miter;stroke-miterlimit:4;stroke-opacity:1;stroke-dasharray:none;display:inline" d="m 110.28712,419.87588 49.70066,46.41045 58.74928,1.7627 97.1916,-59.32343 14.42992,2.90252" id="path3802" sodipodi:nodetypes="ccccc"/>
    <path inkscape:connector-curvature="0" style="fill:none;stroke:#000000;stroke-width:3.36051798;stroke-linecap:butt;stroke-linejoin:miter;stroke-miterlimit:4;stroke-opacity:1;stroke-dasharray:none;display:inline" d="M 520.1984,563.979 576.42123,315.70662 433.26197,331.00093" id="path3804" sodipodi:nodetypes="ccc"/>
    <path inkscape:connector-curvature="0" style="fill:#f9f9f9;stroke:#666666;stroke-width:1.68025899px;stroke-linecap:butt;stroke-linejoin:miter;stroke-opacity:1;display:inline" d="m -137.99693,578.80449 -140.80838,81.01068 252.386061,214.47844 39.45669,-67.6747 321.540869,0.11388 -14.59138,-51.64514 196.11186,-146.74682 -110.84662,-87.05095 -117.27941,84.87873 30.4202,69.91283 -20.18825,15.34642 L 63.807687,714.22279 36.383648,758.37745 -137.99693,578.80449 z" id="path3830" sodipodi:nodetypes="cccccccccccccc"/>
    <path inkscape:connector-curvature="0" style="fill:#f9f9f9;stroke:#666666;stroke-width:1.68025899px;stroke-linecap:butt;stroke-linejoin:miter;stroke-opacity:1;display:inline" d="m 416.35601,468.95263 31.35502,-124.83577 108.31485,-12.60791 -48.49315,205.26218 -91.17672,-67.8185 z" id="path3832"/>
  </g>
</svg>